<svg xmlns="http://www.w3.org/2000/svg" width="34" height="36" viewBox="0 0 34 36" fill="none">
    <path
        d="M2.12555 31.6503C2.12555 33.3449 3.51129 34.7198 5.2193 34.7198H27.9068C29.6148 34.7198 31.0005 33.3449 31.0005 31.6503V14.2561H2.12555V31.6503ZM22.7505 19.1162C22.7505 18.6942 23.0986 18.3489 23.524 18.3489H26.1021C26.5275 18.3489 26.8755 18.6942 26.8755 19.1162V21.6742C26.8755 22.0963 26.5275 22.4416 26.1021 22.4416H23.524C23.0986 22.4416 22.7505 22.0963 22.7505 21.6742V19.1162ZM22.7505 27.3017C22.7505 26.8797 23.0986 26.5343 23.524 26.5343H26.1021C26.5275 26.5343 26.8755 26.8797 26.8755 27.3017V29.8597C26.8755 30.2818 26.5275 30.6271 26.1021 30.6271H23.524C23.0986 30.6271 22.7505 30.2818 22.7505 29.8597V27.3017ZM14.5005 19.1162C14.5005 18.6942 14.8486 18.3489 15.274 18.3489H17.8521C18.2775 18.3489 18.6255 18.6942 18.6255 19.1162V21.6742C18.6255 22.0963 18.2775 22.4416 17.8521 22.4416H15.274C14.8486 22.4416 14.5005 22.0963 14.5005 21.6742V19.1162ZM14.5005 27.3017C14.5005 26.8797 14.8486 26.5343 15.274 26.5343H17.8521C18.2775 26.5343 18.6255 26.8797 18.6255 27.3017V29.8597C18.6255 30.2818 18.2775 30.6271 17.8521 30.6271H15.274C14.8486 30.6271 14.5005 30.2818 14.5005 29.8597V27.3017ZM6.25055 19.1162C6.25055 18.6942 6.5986 18.3489 7.02399 18.3489H9.60211C10.0275 18.3489 10.3755 18.6942 10.3755 19.1162V21.6742C10.3755 22.0963 10.0275 22.4416 9.60211 22.4416H7.02399C6.5986 22.4416 6.25055 22.0963 6.25055 21.6742V19.1162ZM6.25055 27.3017C6.25055 26.8797 6.5986 26.5343 7.02399 26.5343H9.60211C10.0275 26.5343 10.3755 26.8797 10.3755 27.3017V29.8597C10.3755 30.2818 10.0275 30.6271 9.60211 30.6271H7.02399C6.5986 30.6271 6.25055 30.2818 6.25055 29.8597V27.3017ZM27.9068 6.07063H24.813V3.00108C24.813 2.43832 24.349 1.97789 23.7818 1.97789H21.7193C21.1521 1.97789 20.688 2.43832 20.688 3.00108V6.07063H12.438V3.00108C12.438 2.43832 11.974 1.97789 11.4068 1.97789H9.3443C8.77711 1.97789 8.31305 2.43832 8.31305 3.00108V6.07063H5.2193C3.51129 6.07063 2.12555 7.44554 2.12555 9.14019V12.2097H31.0005V9.14019C31.0005 7.44554 29.6148 6.07063 27.9068 6.07063Z"
        fill="url(#paint0_linear_5504_48)" />
    <defs>
        <linearGradient id="paint0_linear_5504_48" x1="31.0005" y1="18.7127" x2="2.12555" y2="18.7127"
            gradientUnits="userSpaceOnUse">
            <stop stop-color="#EB2805" />
            <stop offset="1" stop-color="#FBC30B" />
        </linearGradient>
    </defs>
</svg>