<svg xmlns="http://www.w3.org/2000/svg" width="16" height="17" viewBox="0 0 16 17" fill="none">
    <path
        d="M8 1.56738C4.25391 1.56738 1.21875 4.60254 1.21875 8.34863C1.21875 12.0947 4.25391 15.1299 8 15.1299C11.7461 15.1299 14.7812 12.0947 14.7812 8.34863C14.7812 4.60254 11.7461 1.56738 8 1.56738ZM9.56133 11.1404L7.14961 9.3877C7.06484 9.3248 7.01562 9.22637 7.01562 9.12246V4.52051C7.01562 4.34004 7.16328 4.19238 7.34375 4.19238H8.65625C8.83672 4.19238 8.98438 4.34004 8.98438 4.52051V8.28574L10.7207 9.54902C10.8684 9.65566 10.8984 9.86074 10.7918 10.0084L10.0207 11.0693C9.91406 11.2143 9.70898 11.2471 9.56133 11.1404Z"
        fill="#DC3F2E" />
</svg>