<svg xmlns="http://www.w3.org/2000/svg" width="17" height="17" viewBox="0 0 17 17" fill="none">
    <path
        d="M8.46863 1.56738C4.72253 1.56738 1.68738 4.60254 1.68738 8.34863C1.68738 12.0947 4.72253 15.1299 8.46863 15.1299C12.2147 15.1299 15.2499 12.0947 15.2499 8.34863C15.2499 4.60254 12.2147 1.56738 8.46863 1.56738ZM10.03 11.1404L7.61824 9.3877C7.53347 9.3248 7.48425 9.22637 7.48425 9.12246V4.52051C7.48425 4.34004 7.63191 4.19238 7.81238 4.19238H9.12488C9.30535 4.19238 9.453 4.34004 9.453 4.52051V8.28574L11.1893 9.54902C11.337 9.65566 11.3671 9.86074 11.2604 10.0084L10.4893 11.0693C10.3827 11.2143 10.1776 11.2471 10.03 11.1404Z"
        fill="white" />
</svg>