<svg xmlns="http://www.w3.org/2000/svg" width="22" height="22" viewBox="0 0 22 22" fill="none">
    <g clip-path="url(#clip0_5550_72)">
        <path
            d="M11.0001 0C4.92516 0 6.10352e-05 4.9251 6.10352e-05 11C6.10352e-05 17.0749 4.92516 22 11.0001 22C17.075 22 22.0001 17.0749 22.0001 11C22.0001 4.9251 17.075 0 11.0001 0ZM14.1597 15.3366C13.6799 15.9206 13.0552 16.3144 12.3264 16.5136C12.0095 16.5996 11.8647 16.7671 11.8828 17.0975C11.8964 17.4235 11.8828 17.7449 11.8783 18.0708C11.8783 18.3605 11.7289 18.5144 11.4437 18.5235C11.2581 18.528 11.0725 18.5325 10.8869 18.5325C10.7239 18.5325 10.561 18.5325 10.398 18.528C10.0902 18.5235 9.94533 18.3469 9.94533 18.0481C9.9408 17.8128 9.9408 17.5728 9.9408 17.3374C9.93628 16.8123 9.91817 16.7942 9.4157 16.7128C8.7729 16.6086 8.13916 16.4638 7.55068 16.1786C7.08895 15.9523 7.03916 15.8391 7.17043 15.3502C7.27002 14.9881 7.36961 14.6259 7.48278 14.2683C7.56426 14.0058 7.64121 13.8881 7.78154 13.8881C7.86302 13.8881 7.96714 13.9288 8.10747 14.0012C8.75932 14.3407 9.45191 14.5309 10.1807 14.6214C10.3029 14.635 10.4252 14.644 10.5474 14.644C10.8869 14.644 11.2173 14.5807 11.5387 14.4403C12.349 14.0872 12.4758 13.1502 11.7922 12.5889C11.5614 12.3988 11.2943 12.2584 11.0182 12.1362C10.3075 11.8239 9.56961 11.5885 8.89965 11.1856C7.81323 10.5337 7.12516 9.64198 7.20665 8.32016C7.29718 6.82634 8.14368 5.89383 9.51529 5.39588C10.0811 5.19218 10.0857 5.19671 10.0857 4.60823C10.0857 4.40905 10.0811 4.20988 10.0902 4.00617C10.1038 3.56255 10.1762 3.4856 10.6198 3.47202C10.6696 3.47202 10.7239 3.47202 10.7737 3.47202C10.8597 3.47202 10.9457 3.47202 11.0317 3.47202C11.068 3.47202 11.1042 3.47202 11.1359 3.47202C11.9778 3.47202 11.9778 3.50823 11.9824 4.41811C11.9869 5.08807 11.9869 5.08807 12.6523 5.19218C13.1638 5.27366 13.6482 5.42305 14.119 5.63128C14.377 5.74444 14.4766 5.92551 14.3951 6.20165C14.2774 6.60905 14.1643 7.02099 14.0375 7.42387C13.956 7.66831 13.8791 7.78148 13.7342 7.78148C13.6527 7.78148 13.5531 7.74979 13.4264 7.68642C12.7745 7.36955 12.091 7.21564 11.3758 7.21564C11.2852 7.21564 11.1902 7.22016 11.0996 7.22469C10.8869 7.23827 10.6787 7.26543 10.4795 7.35144C9.77331 7.65926 9.66014 8.43786 10.2622 8.9177C10.5655 9.16214 10.9141 9.33416 11.2717 9.48354C11.8964 9.74156 12.521 9.99053 13.1141 10.3165C14.9791 11.3576 15.4861 13.7251 14.1597 15.3366Z"
            fill="white" />
    </g>
    <defs>
        <clipPath id="clip0_5550_72">
            <rect width="22" height="22" fill="white" />
        </clipPath>
    </defs>
</svg>