<svg xmlns="http://www.w3.org/2000/svg" width="17" height="18" viewBox="0 0 17 18" fill="none">
    <g clip-path="url(#clip0_5521_70)">
        <path
            d="M9.78436 5.89565H7.21452C6.15021 5.89565 4.54961 4.99564 3.95856 4.40045C3.12674 3.56244 3.12674 2.19743 3.95959 1.35942C4.76867 0.545168 6.18017 0.545168 6.99029 1.35942C7.43771 1.80994 8.62602 3.63993 8.46276 4.86131H8.53612C8.37286 3.63993 9.56117 1.80994 10.0096 1.35942C10.8177 0.545168 12.2292 0.543102 13.0403 1.35942C13.8742 2.19743 13.8742 3.5614 13.0403 4.39942C12.4493 4.9946 10.8487 5.89565 9.78436 5.89565ZM9.78436 4.86234C10.4984 4.86234 11.8623 4.12042 12.3067 3.67197C12.7407 3.23591 12.7407 2.52499 12.3067 2.08893C11.8871 1.66631 11.1587 1.66838 10.7412 2.08893C10.0448 2.78952 9.35244 4.57921 9.5932 4.82824C9.59423 4.82824 9.63763 4.86234 9.78436 4.86234ZM5.47546 1.76241C5.17993 1.76241 4.90197 1.87814 4.69221 2.08893C4.25925 2.52499 4.25925 3.23591 4.69221 3.67197C5.13756 4.12042 6.5005 4.86234 7.21452 4.86234C7.36228 4.86234 7.40568 4.82927 7.40568 4.82927C7.64644 4.57818 6.95412 2.78849 6.25767 2.08893C6.04791 1.87814 5.76995 1.76241 5.47546 1.76241Z"
            fill="#F44336" />
        <path
            d="M1.9375 8.37134V14.9338C1.9375 15.4513 2.35844 15.8713 2.875 15.8713H14.125C14.6425 15.8713 15.0625 15.4513 15.0625 14.9338V8.37134H1.9375Z"
            fill="#FFC107" />
        <path
            d="M15.0625 5.55884H1.9375C1.42094 5.55884 1 5.97978 1 6.49634V8.84009C1 9.09884 1.21 9.30884 1.46875 9.30884H15.5312C15.79 9.30884 16 9.09884 16 8.84009V6.49634C16 5.97884 15.58 5.55884 15.0625 5.55884Z"
            fill="#FFD54F" />
        <path d="M10.2073 5.55884H6.79266V15.8713H10.2073V5.55884Z" fill="#F44336" />
    </g>
    <defs>
        <clipPath id="clip0_5521_70">
            <rect width="17" height="17" fill="white" transform="translate(0 0.348633)" />
        </clipPath>
    </defs>
</svg>