<svg xmlns="http://www.w3.org/2000/svg" width="16" height="17" viewBox="0 0 16 17" fill="none">
    <path
        d="M3.00065 3.3403H13.0493C13.2343 3.3403 13.4146 3.36597 13.5896 3.40863C13.3953 2.7963 12.8286 2.34863 12.1526 2.34863H3.84732C3.16732 2.34863 2.59765 2.80197 2.40698 3.41997C2.59798 3.36863 2.79698 3.3403 3.00065 3.3403Z"
        fill="#DC3F2E" />
    <path
        d="M1.99999 5.01529H14C14.2007 5.01529 14.394 5.04563 14.5767 5.10096C14.5477 5.01596 14.514 4.93229 14.4713 4.85329C14.1877 4.33129 13.643 4.00729 13.0493 4.00729H3.00066C2.40533 4.00729 1.85966 4.33296 1.57666 4.85729C1.53699 4.93096 1.50533 5.00829 1.47766 5.08729C1.64433 5.04196 1.81899 5.01563 1.99999 5.01563V5.01529Z"
        fill="#DC3F2E" />
    <path
        d="M14 5.68196H2.00002C1.26369 5.68196 0.666687 6.27896 0.666687 7.01529V13.3486C0.666687 14.085 1.26369 14.682 2.00002 14.682H14C14.7364 14.682 15.3334 14.085 15.3334 13.3486V7.01529C15.3334 6.27896 14.7364 5.68196 14 5.68196ZM10.3047 11.048L7.30469 12.78C7.14802 12.8703 6.97635 12.9156 6.80469 12.9156C6.63302 12.9156 6.46102 12.8706 6.30469 12.78C5.99169 12.5993 5.80469 12.2756 5.80469 11.914V8.44996C5.80469 8.08829 5.99169 7.76463 6.30469 7.58396C6.61769 7.40329 6.99169 7.40329 7.30469 7.58396L10.3047 9.31596C10.6177 9.49663 10.8047 9.82063 10.8047 10.182C10.8047 10.5433 10.6177 10.8673 10.3047 11.048Z"
        fill="#DC3F2E" />
</svg>