<svg xmlns="http://www.w3.org/2000/svg" width="18" height="18" viewBox="0 0 18 18" fill="none">
    <path
        d="M6.75 4.5C6.33579 4.5 6 4.83579 6 5.25C6 5.66421 6.33579 6 6.75 6V4.5ZM11.25 6C11.6642 6 12 5.66421 12 5.25C12 4.83579 11.6642 4.5 11.25 4.5V6ZM5.25 15.75C5.25 16.1642 5.58579 16.5 6 16.5C6.41421 16.5 6.75 16.1642 6.75 15.75H5.25ZM5.25 13.5C4.83579 13.5 4.5 13.1642 4.5 12.75H3C3 13.9926 4.00736 15 5.25 15V13.5ZM5.25 10.5C4.00736 10.5 3 11.5074 3 12.75H4.5C4.5 12.3358 4.83579 12 5.25 12V10.5ZM5.25 3H13.875V1.5H5.25V3ZM13.875 3C13.6679 3 13.5 2.83211 13.5 2.625H15C15 2.00368 14.4963 1.5 13.875 1.5V3ZM5.25 1.5C4.00736 1.5 3 2.50736 3 3.75H4.5C4.5 3.33579 4.83579 3 5.25 3V1.5ZM3 3.75V12.75H4.5V3.75H3ZM13.5 2.625V11.25H15V2.625H13.5ZM6.75 6H11.25V4.5H6.75V6ZM5.25 12H14.25V10.5H5.25V12ZM13.875 13.5H5.25V15H13.875V13.5ZM13.5 13.875C13.5 13.6679 13.6679 13.5 13.875 13.5V15C14.4963 15 15 14.4963 15 13.875H13.5ZM13.5 11.25V13.875H15V11.25H13.5ZM5.25 12.75V15.75H6.75V12.75H5.25Z"
        fill="currentColor" />
</svg>