<svg xmlns="http://www.w3.org/2000/svg" width="22" height="22" viewBox="0 0 22 22" fill="none">
  <path d="M11 5.61458C11.886 5.61458 12.6042 4.89637 12.6042 4.01042C12.6042 3.12446 11.886 2.40625 11 2.40625C10.1141 2.40625 9.39584 3.12446 9.39584 4.01042C9.39584 4.89637 10.1141 5.61458 11 5.61458Z" fill="white"/>
  <path d="M19.25 8.36458C20.136 8.36458 20.8542 7.64637 20.8542 6.76042C20.8542 5.87446 20.136 5.15625 19.25 5.15625C18.3641 5.15625 17.6458 5.87446 17.6458 6.76042C17.6458 7.64637 18.3641 8.36458 19.25 8.36458Z" fill="white"/>
  <path d="M2.75001 8.36458C3.63597 8.36458 4.35418 7.64637 4.35418 6.76042C4.35418 5.87446 3.63597 5.15625 2.75001 5.15625C1.86405 5.15625 1.14584 5.87446 1.14584 6.76042C1.14584 7.64637 1.86405 8.36458 2.75001 8.36458Z" fill="white"/>
  <path fill-rule="evenodd" clip-rule="evenodd" d="M19.4654 7.81175C19.5241 7.52025 19.3884 7.22509 19.1309 7.07842C18.8724 6.93267 18.5488 6.96842 18.3288 7.16825C18.3288 7.16825 17.3699 8.04 16.2883 9.02359C15.7823 9.48375 15.081 9.6625 14.4164 9.50209C13.7519 9.34167 13.2101 8.86225 12.9699 8.2215L11.6435 4.68592C11.5427 4.41734 11.2869 4.2395 11 4.2395C10.7131 4.2395 10.4574 4.41734 10.3565 4.68592L9.0301 8.2215C8.78993 8.86225 8.24818 9.34167 7.5836 9.50209C6.91902 9.6625 6.21777 9.48375 5.71177 9.02359C4.6301 8.04 3.67127 7.16825 3.67127 7.16825C3.45127 6.96842 3.12768 6.93267 2.86918 7.07842C2.6116 7.22509 2.47593 7.52025 2.5346 7.81175C2.5346 7.81175 3.55485 12.913 4.07277 15.5044C4.30835 16.6833 5.34327 17.5312 6.54502 17.5312H15.455C16.6568 17.5312 17.6917 16.6833 17.9273 15.5044C18.4452 12.913 19.4654 7.81175 19.4654 7.81175Z" fill="white"/>
  <path fill-rule="evenodd" clip-rule="evenodd" d="M16.5 18.9062H5.5C5.1205 18.9062 4.8125 19.2142 4.8125 19.5938C4.8125 19.9733 5.1205 20.2812 5.5 20.2812H16.5C16.8795 20.2812 17.1875 19.9733 17.1875 19.5938C17.1875 19.2142 16.8795 18.9062 16.5 18.9062Z" fill="white"/>
</svg>