<svg xmlns="http://www.w3.org/2000/svg" width="18" height="18" viewBox="0 0 18 18" fill="none">
    <path
        d="M9 7.87502C8.26131 7.87502 7.52263 7.81381 6.75 7.6914C5.61019 7.51081 4.39651 7.19702 3 6.75002C3 6.75002 1.5 7.69016 1.5 9.75002C1.5 11.8099 3 12.75 3 12.75C7.68629 11.25 10.3137 11.25 15 12.75C15 12.75 16.5 11.8099 16.5 9.75002C16.5 7.69016 15 6.75002 15 6.75002C13.6035 7.19702 12.3898 7.51081 11.25 7.6914C10.4774 7.81381 9.73869 7.87502 9 7.87502ZM9 7.87502V6.75002M9 7.87502L11.3993 7.63509C12.1661 7.55841 12.75 6.91316 12.75 6.14254V6.00002C12.75 5.17159 12.0784 4.50002 11.25 4.50002C10.0074 4.50002 9 5.50738 9 6.75002M9 7.87502L6.60074 7.63507C5.83394 7.55839 5.25 6.91315 5.25 6.14252V6C5.25 5.17157 5.92157 4.5 6.75 4.5C7.99264 4.5 9 5.50738 9 6.75002"
        stroke="currentColor" stroke-width="1.5" stroke-linejoin="round" />
    <path
        d="M7.82008 14.9454L8.86742 13.9111C8.94064 13.8388 9.05936 13.8388 9.13258 13.9111L10.1799 14.9454C10.298 15.062 10.5 14.9794 10.5 14.8145V8.24068C10.5 7.83161 10.1642 7.5 9.75 7.5H8.25C7.83579 7.5 7.5 7.83161 7.5 8.24068V14.8145C7.5 14.9794 7.70196 15.062 7.82008 14.9454Z"
        fill="currentColor" />
</svg>