<svg xmlns="http://www.w3.org/2000/svg" width="41" height="40" viewBox="0 0 41 40" fill="none">
    <path
        d="M17.2257 7.53899L4.43199 14.6772C3.634 15.1224 3.634 16.5442 4.43198 16.9894L17.2257 24.1277C19.3104 25.2908 21.6899 25.2908 23.7746 24.1277L36.5683 16.9894C37.3663 16.5442 37.3663 15.1224 36.5683 14.6772L23.7746 7.539C21.69 6.37588 19.3104 6.37588 17.2257 7.53899Z"
        fill="url(#paint0_linear_2033_1880)" />
    <path
        d="M8.38577 28.7469C8.13622 28.4972 8.07415 28.1295 8.19483 27.7978L9.57398 24.0072C9.62662 23.8625 9.79627 23.7993 9.93072 23.8743L15.6016 27.0384C18.6957 28.7647 22.3046 28.7647 25.3987 27.0384L31.0696 23.8743C31.2041 23.7993 31.3737 23.8625 31.4263 24.0072L32.8055 27.7978C32.9262 28.1295 32.8641 28.4972 32.6146 28.7469C31.4165 29.9453 27.4183 33.3328 20.5002 33.3328C13.582 33.3328 9.58381 29.9453 8.38577 28.7469Z"
        fill="url(#paint1_linear_2033_1880)" />
    <defs>
        <linearGradient id="paint0_linear_2033_1880" x1="2.5" y1="7" x2="37" y2="33" gradientUnits="userSpaceOnUse">
            <stop stop-color="#FE6D34" />
            <stop offset="1" stop-color="#FACC15" />
        </linearGradient>
        <linearGradient id="paint1_linear_2033_1880" x1="2.5" y1="7" x2="37" y2="33" gradientUnits="userSpaceOnUse">
            <stop stop-color="#FE6D34" />
            <stop offset="1" stop-color="#FACC15" />
        </linearGradient>
    </defs>
</svg>