<svg xmlns="http://www.w3.org/2000/svg" width="18" height="18" viewBox="0 0 18 18" fill="none">
    <path
        d="M4.64791 9.25135L1.76932 7.64525C1.41023 7.4449 1.41023 6.8051 1.76932 6.60475L7.52651 3.39255C8.4646 2.86915 9.5354 2.86915 10.4735 3.39255L16.2307 6.60475C16.5898 6.8051 16.5898 7.4449 16.2307 7.64525L13.3521 9.25135M4.64791 9.25135L7.52651 10.8574C8.46459 11.3809 9.5354 11.3809 10.4735 10.8574L13.3521 9.25135M4.64791 9.25135L3.375 12.75C3.375 12.75 5.2178 15 9 15C12.7822 15 14.625 12.75 14.625 12.75L13.3521 9.25135"
        stroke="currentColor" stroke-width="1.5" stroke-linecap="round" stroke-linejoin="round" />
</svg>