<svg xmlns="http://www.w3.org/2000/svg" width="18" height="18" viewBox="0 0 18 18" fill="none">
    <path
        d="M6.75 6.75H9M6.75 9.75H11.25M9.39474 15.7105C13.3189 15.7105 16.5 12.5294 16.5 8.60526C16.5 4.68113 13.3189 1.5 9.39474 1.5C5.47061 1.5 2.28947 4.68113 2.28947 8.60526C2.28947 9.47752 2.44665 10.3131 2.73422 11.0851C2.9242 11.5952 2.97978 12.1548 2.80432 12.67L2.15533 14.5757C1.88775 15.3614 2.6386 16.1122 3.42432 15.8447L5.33 15.1957C5.84522 15.0202 6.40484 15.0758 6.91488 15.2658C7.68694 15.5534 8.52248 15.7105 9.39474 15.7105Z"
        stroke="currentColor" stroke-width="1.5" stroke-linecap="round" />
</svg>