<svg xmlns="http://www.w3.org/2000/svg" width="16" height="16" viewBox="0 0 16 16" fill="none">
    <path fill-rule="evenodd" clip-rule="evenodd"
        d="M12.6667 2.66669H3.33333C2.22876 2.66669 1.33333 3.56212 1.33333 4.66669V11.3334C1.33333 12.4379 2.22876 13.3334 3.33333 13.3334H12.6667C13.7712 13.3334 14.6667 12.4379 14.6667 11.3334V4.66669C14.6667 3.56212 13.7712 2.66669 12.6667 2.66669ZM10.7558 11.6667C10.8711 11.866 11.0866 12 11.3333 12C11.5801 12 11.7955 11.866 11.9108 11.6667H12.6667C13.0349 11.6667 13.3333 11.3682 13.3333 11C13.3333 10.6318 13.0349 10.3334 12.6667 10.3334H11.9108C11.7955 10.1341 11.5801 10 11.3333 10C11.0866 10 10.8711 10.1341 10.7558 10.3334H3.33333C2.96514 10.3334 2.66666 10.6318 2.66666 11C2.66666 11.3682 2.96514 11.6667 3.33333 11.6667H10.7558ZM6.99999 5.93477V8.06527C6.99999 8.32708 7.28798 8.4867 7.50999 8.34794L9.2144 7.28269C9.42328 7.15213 9.42328 6.84791 9.2144 6.71735L7.50999 5.6521C7.28798 5.51334 6.99999 5.67296 6.99999 5.93477Z"
        fill="#4B5563" />
</svg>