<svg xmlns="http://www.w3.org/2000/svg" width="21" height="20" viewBox="0 0 21 20" fill="none">
    <path
        d="M3.83333 2.91667C3.83333 2.68655 4.01988 2.5 4.25 2.5H8.41667C8.64679 2.5 8.83333 2.68655 8.83333 2.91667V7.08333C8.83333 7.31345 8.64679 7.5 8.41667 7.5H4.25C4.01988 7.5 3.83333 7.31345 3.83333 7.08333V2.91667Z"
        fill="currentColor" />
    <path
        d="M13 12.0833C13 11.8532 13.1865 11.6667 13.4167 11.6667H17.5833C17.8135 11.6667 18 11.8532 18 12.0833V16.25C18 16.4801 17.8135 16.6667 17.5833 16.6667H13.4167C13.1865 16.6667 13 16.4801 13 16.25V12.0833Z"
        fill="currentColor" />
    <path
        d="M6.62537 10.9543C6.46408 10.793 6.20259 10.793 6.0413 10.9543L3.12096 13.8746C2.95968 14.0359 2.95968 14.2974 3.12096 14.4587L6.0413 17.379C6.20259 17.5403 6.46408 17.5403 6.62537 17.379L9.5457 14.4587C9.70699 14.2974 9.70699 14.0359 9.5457 13.8746L6.62537 10.9543Z"
        fill="currentColor" />
    <path
        d="M15.9167 3.33333C15.9167 2.8731 15.5436 2.5 15.0833 2.5C14.6231 2.5 14.25 2.8731 14.25 3.33333V4.375C14.25 4.49006 14.1567 4.58333 14.0417 4.58333H13C12.5398 4.58333 12.1667 4.95643 12.1667 5.41667C12.1667 5.8769 12.5398 6.25 13 6.25H14.0417C14.1567 6.25 14.25 6.34327 14.25 6.45833V7.5C14.25 7.96024 14.6231 8.33333 15.0833 8.33333C15.5436 8.33333 15.9167 7.96024 15.9167 7.5V6.45833C15.9167 6.34327 16.0099 6.25 16.125 6.25H17.1667C17.6269 6.25 18 5.8769 18 5.41667C18 4.95643 17.6269 4.58333 17.1667 4.58333H16.125C16.0099 4.58333 15.9167 4.49006 15.9167 4.375V3.33333Z"
        fill="currentColor" />
</svg>