<svg xmlns="http://www.w3.org/2000/svg" width="20" height="20" viewBox="0 0 20 20" fill="none">
    <path
        d="M7.88592 1.79285C7.94818 1.62459 8.18617 1.62459 8.24843 1.79285L9.86331 6.15701C9.88289 6.20991 9.9246 6.25162 9.9775 6.27119L14.3417 7.88608C14.5099 7.94834 14.5099 8.18632 14.3417 8.24858L9.9775 9.86347C9.9246 9.88304 9.88289 9.92475 9.86332 9.97765L8.24843 14.3418C8.18617 14.5101 7.94818 14.5101 7.88592 14.3418L6.27104 9.97765C6.25146 9.92475 6.20975 9.88304 6.15685 9.86347L1.7927 8.24858C1.62444 8.18632 1.62444 7.94834 1.7927 7.88608L6.15685 6.27119C6.20975 6.25162 6.25146 6.20991 6.27104 6.15701L7.88592 1.79285Z"
        fill="currentColor" />
    <path
        d="M14.6502 11.4562C14.7125 11.2879 14.9505 11.2879 15.0127 11.4562L15.8446 13.7043C15.8642 13.7572 15.9059 13.7989 15.9588 13.8185L18.207 14.6504C18.3752 14.7126 18.3752 14.9506 18.207 15.0129L15.9588 15.8448C15.9059 15.8644 15.8642 15.9061 15.8446 15.959L15.0127 18.2071C14.9505 18.3754 14.7125 18.3754 14.6502 18.2071L13.8183 15.959C13.7988 15.9061 13.7571 15.8644 13.7042 15.8448L11.456 15.0129C11.2877 14.9506 11.2877 14.7126 11.456 14.6504L13.7042 13.8185C13.7571 13.7989 13.7988 13.7572 13.8183 13.7043L14.6502 11.4562Z"
        fill="currentColor" />
</svg>