<svg width="43" height="43" viewBox="0 0 43 43" fill="none" xmlns="http://www.w3.org/2000/svg">
<rect width="42.8887" height="42.8887" rx="21.4444" fill="url(#paint0_linear_7461_99)"/>
<path fill-rule="evenodd" clip-rule="evenodd" d="M26.861 13.9443C26.861 16.9358 24.4359 19.3609 21.4444 19.3609C18.4528 19.3609 16.0277 16.9358 16.0277 13.9443C16.0277 10.9527 18.4528 8.52759 21.4444 8.52759C24.4359 8.52759 26.861 10.9527 26.861 13.9443ZM19.2777 21.5276C15.0895 21.5276 11.6944 24.9228 11.6944 29.1109C11.6944 30.9059 13.1494 32.3609 14.9444 32.3609H22.9711C23.4393 32.3609 23.7053 31.789 23.4628 31.3884C22.8693 30.4078 22.5277 29.2576 22.5277 28.0276C22.5277 25.824 23.6242 23.8765 25.3015 22.7009C25.6951 22.4251 25.6616 21.7921 25.1913 21.6925C24.6816 21.5845 24.1529 21.5276 23.611 21.5276H19.2777ZM29.0277 23.6943C29.626 23.6943 30.111 24.1793 30.111 24.7776V26.9443H32.2777C32.876 26.9443 33.361 27.4293 33.361 28.0276C33.361 28.6259 32.876 29.1109 32.2777 29.1109H30.111V31.2776C30.111 31.8758 29.626 32.3609 29.0277 32.3609C28.4294 32.3609 27.9444 31.8758 27.9444 31.2776V29.1109H25.7777C25.1794 29.1109 24.6944 28.6259 24.6944 28.0276C24.6944 27.4293 25.1794 26.9443 25.7777 26.9443H27.9444V24.7776C27.9444 24.1793 28.4294 23.6943 29.0277 23.6943Z" fill="white"/>
<defs>
<linearGradient id="paint0_linear_7461_99" x1="42.8887" y1="21.9209" x2="5.29633e-07" y2="21.9209" gradientUnits="userSpaceOnUse">
<stop stop-color="#EB2805"/>
<stop offset="1" stop-color="#FBC30B"/>
</linearGradient>
</defs>
</svg>
