<svg width="43" height="43" viewBox="0 0 43 43" fill="none" xmlns="http://www.w3.org/2000/svg">
<rect width="42.0227" height="43" rx="21.0114" fill="url(#paint0_linear_7461_95)"/>
<path d="M16.858 16.6137C16.858 14.0542 18.9405 11.9717 21.5 11.9717C24.0595 11.9717 26.1421 14.0542 26.1421 16.6137C26.1421 19.1732 24.0595 21.2558 21.5 21.2558C18.9405 21.2558 16.858 19.1732 16.858 16.6137ZM24.4318 22.7217H18.5682C15.4702 22.7217 12.9489 25.243 12.9489 28.341C12.9489 29.8235 14.1539 31.0285 15.6364 31.0285H27.3637C28.8462 31.0285 30.0512 29.8235 30.0512 28.341C30.0512 25.243 27.5298 22.7217 24.4318 22.7217Z" fill="#EFF1F2"/>
<defs>
<linearGradient id="paint0_linear_7461_95" x1="42.0227" y1="21.9778" x2="5.18939e-07" y2="21.9778" gradientUnits="userSpaceOnUse">
<stop stop-color="#EB2805"/>
<stop offset="1" stop-color="#FBC30B"/>
</linearGradient>
</defs>
</svg>
