<svg xmlns="http://www.w3.org/2000/svg" width="38" height="38" viewBox="0 0 38 38" fill="none">
    <path
        d="M28.5908 5.37342L8.15043 6.37528C6.98877 6.43222 5.89729 6.9483 5.11613 7.80998C4.33497 8.67167 3.9281 9.80838 3.98504 10.97L4.6291 24.1103C4.68603 25.2719 5.20211 26.3634 6.0638 27.1446C6.92548 27.9257 8.06219 28.3326 9.22386 28.2757L13.3703 28.0724C13.5897 28.0627 13.8084 28.1025 14.0103 28.1889C14.2121 28.2753 14.3919 28.406 14.5363 28.5714L17.356 31.7554C17.6464 32.0831 18.0066 32.3413 18.4101 32.5111C18.8135 32.681 19.25 32.758 19.6872 32.7366C20.1245 32.7151 20.5513 32.5958 20.9363 32.3873C21.3212 32.1789 21.6544 31.8866 21.9113 31.5322L24.4061 28.0877C24.5337 27.9089 24.6998 27.7612 24.8923 27.6555C25.0847 27.5498 25.2985 27.4888 25.5178 27.477L29.6642 27.2738C30.8259 27.2169 31.9174 26.7008 32.6985 25.8391C33.4797 24.9774 33.8866 23.8407 33.8296 22.679L33.1856 9.53881C33.1286 8.37714 32.6126 7.28567 31.7509 6.50451C30.8892 5.72334 29.7525 5.31648 28.5908 5.37342Z"
        fill="url(#paint0_linear_5410_201)" />
    <path
        d="M19.0405 19.5412C18.5291 19.5662 18.0288 19.3871 17.6495 19.0433C17.2701 18.6994 17.043 18.2189 17.0179 17.7076L16.7344 11.9233C16.7093 11.412 16.8884 10.9116 17.2323 10.5323C17.5762 10.153 18.0566 9.9258 18.568 9.90074C19.0793 9.87567 19.5797 10.0548 19.959 10.3986C20.3383 10.7425 20.5655 11.223 20.5906 11.7343L20.8741 17.5186C20.8991 18.0299 20.72 18.5303 20.3762 18.9096C20.0323 19.2889 19.5519 19.5161 19.0405 19.5412Z"
        fill="white" />
    <path
        d="M19.3004 24.8435C20.3652 24.7913 21.1862 23.8857 21.134 22.8209C21.0818 21.756 20.1762 20.9351 19.1114 20.9873C18.0465 21.0395 17.2256 21.945 17.2778 23.0099C17.33 24.0747 18.2355 24.8956 19.3004 24.8435Z"
        fill="white" />
    <defs>
        <linearGradient id="paint0_linear_5410_201" x1="33.6438" y1="18.8883" x2="4.4433" y2="20.3195"
            gradientUnits="userSpaceOnUse">
            <stop stop-color="#EB2805" />
            <stop offset="1" stop-color="#FBC30B" />
        </linearGradient>
    </defs>
</svg>